<svg width="24" height="24" viewBox="0 0 24 24" fill="none" xmlns="http://www.w3.org/2000/svg">
<g clip-path="url(#clip0_659_134)">
<path d="M3.12007 12.8571H17.1429L18.8572 4.28564H1.71435C1.58899 4.2861 1.46525 4.31406 1.35186 4.36753C1.23848 4.42101 1.1382 4.49871 1.0581 4.59515C0.978008 4.69159 0.920042 4.80443 0.888294 4.92571C0.856545 5.04699 0.851786 5.17376 0.874353 5.29707L2.28007 12.1542C2.31286 12.3525 2.41564 12.5324 2.56976 12.6614C2.72388 12.7903 2.91913 12.8598 3.12007 12.8571V12.8571Z" stroke="#000001" stroke-linecap="round" stroke-linejoin="round"/>
<path d="M18.8572 4.28575L19.5772 1.54289C19.6167 1.34929 19.7219 1.17528 19.875 1.05033C20.028 0.925369 20.2196 0.857137 20.4172 0.857178H23.1429" stroke="#000001" stroke-linecap="round" stroke-linejoin="round"/>
<path d="M17.1428 12.8572L16.4228 16.4572C16.3833 16.6508 16.2781 16.8248 16.125 16.9497C15.972 17.0747 15.7804 17.1429 15.5828 17.1429H5.14282" stroke="#000001" stroke-linecap="round" stroke-linejoin="round"/>
<path d="M5.99997 23.143C6.47335 23.143 6.85711 22.7592 6.85711 22.2859C6.85711 21.8125 6.47335 21.4287 5.99997 21.4287C5.52658 21.4287 5.14282 21.8125 5.14282 22.2859C5.14282 22.7592 5.52658 23.143 5.99997 23.143Z" stroke="#000001" stroke-linecap="round" stroke-linejoin="round"/>
<path d="M14.5715 23.143C15.0449 23.143 15.4286 22.7592 15.4286 22.2859C15.4286 21.8125 15.0449 21.4287 14.5715 21.4287C14.0981 21.4287 13.7144 21.8125 13.7144 22.2859C13.7144 22.7592 14.0981 23.143 14.5715 23.143Z" stroke="#000001" stroke-linecap="round" stroke-linejoin="round"/>
</g>
<defs>
<clipPath id="clip0_659_134">
<rect width="24" height="24" fill="white"/>
</clipPath>
</defs>
</svg>
