<svg width="37" height="22" viewBox="0 0 37 22" fill="none" xmlns="http://www.w3.org/2000/svg">
<rect width="37" height="22" fill="#F5F5F5"/>
<rect width="768" height="830" transform="translate(-412 -264)" fill="white"/>
<rect x="0.25" y="0.25" width="36.5" height="21.5" rx="3.75" fill="#FDFDFD"/>
<g clip-path="url(#clip0_0_1)">
<path d="M10.568 7.28451C10.275 7.62104 9.80617 7.88647 9.33736 7.84855C9.27876 7.39352 9.50828 6.91006 9.77687 6.61144C10.0699 6.26543 10.5826 6.01896 10.9977 6C11.0465 6.47399 10.8561 6.9385 10.568 7.28451ZM10.9928 7.93861C10.314 7.90069 9.73292 8.31306 9.41061 8.31306C9.08343 8.31306 8.59021 7.95757 8.05304 7.96705C7.35471 7.97653 6.70522 8.36046 6.34874 8.9719C5.61623 10.1948 6.15829 12.0054 6.86638 13.0008C7.2131 13.4937 7.62818 14.0341 8.17512 14.0151C8.69276 13.9962 8.89786 13.6881 9.52293 13.6881C10.1529 13.6881 10.3336 14.0151 10.8805 14.0057C11.447 13.9962 11.8035 13.5127 12.1502 13.0198C12.5457 12.4605 12.7069 11.9154 12.7167 11.8869C12.7069 11.8775 11.6228 11.4746 11.613 10.2612C11.6032 9.24682 12.4676 8.76335 12.5067 8.73491C12.0183 8.03341 11.2565 7.95757 10.9928 7.93861ZM14.9142 6.56405V13.9535H16.0959V11.4272H17.7319C19.2262 11.4272 20.2761 10.4318 20.2761 8.99086C20.2761 7.54994 19.2457 6.56405 17.7709 6.56405H14.9142ZM16.0959 7.53098H17.4584C18.4839 7.53098 19.0699 8.06185 19.0699 8.9956C19.0699 9.92936 18.4839 10.465 17.4535 10.465H16.0959V7.53098ZM22.4346 14.0104C23.1768 14.0104 23.8654 13.6454 24.1779 13.0672H24.2023V13.9535H25.2962V10.2754C25.2962 9.2089 24.4172 8.52162 23.0645 8.52162C21.8095 8.52162 20.8817 9.21838 20.8475 10.1758H21.912C21.9999 9.72081 22.4346 9.42219 23.0303 9.42219C23.7531 9.42219 24.1584 9.74924 24.1584 10.3512V10.7588L22.6836 10.8442C21.3114 10.9247 20.5691 11.4698 20.5691 12.4178C20.5691 13.3753 21.3358 14.0104 22.4346 14.0104ZM22.752 13.1335C22.122 13.1335 21.7216 12.8396 21.7216 12.3894C21.7216 11.9248 22.1074 11.6547 22.8448 11.612L24.1584 11.5314V11.9485C24.1584 12.6406 23.5529 13.1335 22.752 13.1335ZM26.7563 15.9632C27.9088 15.9632 28.4509 15.5366 28.9246 14.2427L31 8.59271H29.7987L28.4069 12.9581H28.3825L26.9908 8.59271H25.7553L27.7574 13.9725L27.65 14.2995C27.4693 14.8541 27.1763 15.0674 26.6538 15.0674C26.561 15.0674 26.3803 15.0579 26.3071 15.0484V15.9348C26.3754 15.9537 26.6684 15.9632 26.7563 15.9632Z" fill="#242423"/>
</g>
<rect x="0.25" y="0.25" width="36.5" height="21.5" rx="3.75" stroke="#242423" stroke-width="0.5"/>
<rect x="-431.5" y="-913.5" width="1479" height="1521" rx="4.5" stroke="#9747FF" stroke-dasharray="10 5"/>
<defs>
<clipPath id="clip0_0_1">
<rect width="25" height="10" fill="white" transform="translate(6 6)"/>
</clipPath>
</defs>
</svg>
