<svg xmlns="http://www.w3.org/2000/svg" width="33" height="32" fill="none"><g clip-path="url(#a)"><path fill="#1877F2" d="M32.5 16c0-8.837-7.163-16-16-16S.5 7.163.5 16c0 7.986 5.851 14.605 13.5 15.806V20.625H9.937V16H14v-3.525c0-4.01 2.389-6.225 6.043-6.225 1.751 0 3.582.313 3.582.313V10.5h-2.017C19.62 10.5 19 11.733 19 12.999V16h4.438l-.71 4.625H19v11.18c7.649-1.2 13.5-7.819 13.5-15.805Z"/><path fill="#fff" d="m22.728 20.625.71-4.625H19v-3.001c0-1.266.62-2.499 2.608-2.499h2.017V6.562s-1.831-.312-3.582-.312C16.39 6.25 14 8.465 14 12.475V16H9.937v4.625H14v11.18a16.123 16.123 0 0 0 5 0v-11.18h3.728Z"/></g><defs><clipPath id="a"><path fill="#fff" d="M.5 0h32v32H.5z"/></clipPath></defs></svg>