<svg xmlns="http://www.w3.org/2000/svg" width="36" height="14" fill="none"><path fill="#5F6368" d="M17.016 6.826v4.093h-1.35V.796h3.51a3.39 3.39 0 0 1 2.294.88c.63.527.945 1.32.945 2.156 0 .837-.314 1.585-.945 2.157-.63.573-1.394.88-2.294.88l-2.16-.043Zm0-4.798V5.55h2.25c.495 0 .99-.177 1.305-.528.72-.66.72-1.76.044-2.421l-.044-.045c-.36-.352-.81-.572-1.305-.527h-2.25v-.001ZM25.517 3.789c.99 0 1.754.263 2.34.793.584.527.854 1.232.854 2.112v4.227h-1.26v-.969h-.044c-.54.793-1.305 1.189-2.204 1.189-.764 0-1.44-.22-1.98-.66-.494-.44-.81-1.057-.81-1.716 0-.705.27-1.276.81-1.717.54-.44 1.304-.616 2.205-.616.81 0 1.44.132 1.934.44v-.308c0-.44-.18-.88-.54-1.144a1.989 1.989 0 0 0-1.304-.485c-.764 0-1.35.308-1.754.925l-1.17-.705c.719-.926 1.664-1.366 2.923-1.366Zm-1.71 5.017c0 .353.18.66.45.836.315.22.675.353 1.035.353.54 0 1.08-.22 1.484-.616.45-.397.675-.88.675-1.41-.405-.307-.99-.483-1.755-.483-.539 0-.99.132-1.349.395-.36.221-.54.53-.54.925ZM36 4.01 31.547 14h-1.35l1.665-3.477-2.925-6.47h1.44l2.114 4.973h.045l2.07-4.974H36V4.01Z"/><path fill="#4285F4" d="M11.664 5.946c0-.397-.046-.793-.09-1.189H5.95v2.245h3.194c-.135.704-.54 1.364-1.17 1.76v1.453h1.934c1.124-1.012 1.755-2.51 1.755-4.27Z"/><path fill="#34A853" d="M5.948 11.623c1.62 0 2.968-.528 3.96-1.409L7.972 8.762c-.54.352-1.215.572-2.024.572a3.514 3.514 0 0 1-3.328-2.421H.64V8.41a5.959 5.959 0 0 0 5.307 3.213Z"/><path fill="#FBBC04" d="M2.62 6.914a3.212 3.212 0 0 1 0-2.245V3.172H.641c-.855 1.63-.855 3.566 0 5.238l1.98-1.496Z"/><path fill="#EA4335" d="M5.948 2.292c.855 0 1.665.307 2.294.88l1.71-1.673C8.872.531 7.433-.04 5.993.002c-2.25 0-4.318 1.232-5.307 3.214l1.979 1.496c.405-1.407 1.754-2.42 3.283-2.42Z"/></svg>