<svg xmlns="http://www.w3.org/2000/svg" width="60" height="30" fill="none"><path fill="#fff" d="M11.648 1.052a15.82 15.82 0 0 0 1.082 30.226 16.9 16.9 0 0 0 8.09.087A14.283 14.283 0 0 0 27.295 28a14.36 14.36 0 0 0 4-6.565 18.58 18.58 0 0 0 .403-8.395h-14.88v6.172h8.617a7.43 7.43 0 0 1-3.165 4.88 9.04 9.04 0 0 1-3.482 1.376 10.325 10.325 0 0 1-3.775 0 9.29 9.29 0 0 1-3.513-1.533 9.825 9.825 0 0 1-3.625-4.855 9.577 9.577 0 0 1 0-6.157 9.812 9.812 0 0 1 2.295-3.728 9.293 9.293 0 0 1 9.363-2.445 8.57 8.57 0 0 1 3.41 2c.971-.967 1.941-1.936 2.91-2.907.5-.523 1.045-1.02 1.537-1.556a15.304 15.304 0 0 0-5.09-3.14 16 16 0 0 0-10.652-.095Z"/><path fill="#FF3D00" d="M11.648 1.052a16 16 0 0 1 10.652.093A15.305 15.305 0 0 1 27.388 4.3c-.5.535-1.028 1.035-1.538 1.555-.97.968-1.939 1.933-2.907 2.895a8.57 8.57 0 0 0-3.41-2 9.292 9.292 0 0 0-9.365 2.435 9.812 9.812 0 0 0-2.295 3.727L2.69 8.9a15.883 15.883 0 0 1 8.958-7.848Z"/><path fill="#FFC107" d="M1.315 12.875c.278-1.38.74-2.717 1.375-3.975l5.182 4.022a9.577 9.577 0 0 0 0 6.158A1523.448 1523.448 0 0 0 2.69 23.1a15.832 15.832 0 0 1-1.375-10.225Z"/><path fill="#1976D2" d="M16.817 13.037h14.88a18.582 18.582 0 0 1-.402 8.396 14.36 14.36 0 0 1-4 6.564c-1.673-1.305-3.353-2.6-5.025-3.904a7.43 7.43 0 0 0 3.165-4.886h-8.617c-.003-2.055 0-4.112 0-6.17Z"/><path fill="#4CAF50" d="M2.688 23.1c1.728-1.333 3.455-2.673 5.182-4.02a9.825 9.825 0 0 0 3.63 4.855 9.29 9.29 0 0 0 3.52 1.52 10.32 10.32 0 0 0 3.775 0 9.04 9.04 0 0 0 3.482-1.375c1.673 1.305 3.353 2.6 5.025 3.905a14.283 14.283 0 0 1-6.474 3.367c-2.665.627-5.44.597-8.09-.087a15.75 15.75 0 0 1-5.75-2.898 15.932 15.932 0 0 1-4.3-5.267Z"/></svg>