<svg width="32" height="32" viewBox="0 0 32 32" fill="none" xmlns="http://www.w3.org/2000/svg">
<path d="M11.9998 29.3333H19.9998C26.6665 29.3333 29.3332 26.6666 29.3332 20V12C29.3332 5.33329 26.6665 2.66663 19.9998 2.66663H11.9998C5.33317 2.66663 2.6665 5.33329 2.6665 12V20C2.6665 26.6666 5.33317 29.3333 11.9998 29.3333Z" stroke="black" stroke-width="1.5" stroke-linecap="round" stroke-linejoin="round"/>
<path d="M16.0002 20.6667C16.613 20.6667 17.2198 20.546 17.786 20.3115C18.3522 20.077 18.8667 19.7332 19.3 19.2999C19.7333 18.8665 20.0771 18.3521 20.3116 17.7859C20.5461 17.2197 20.6668 16.6129 20.6668 16C20.6668 15.3872 20.5461 14.7804 20.3116 14.2142C20.0771 13.648 19.7333 13.1335 19.3 12.7002C18.8667 12.2669 18.3522 11.9231 17.786 11.6886C17.2198 11.4541 16.613 11.3334 16.0002 11.3334C14.7625 11.3334 13.5755 11.825 12.7003 12.7002C11.8252 13.5754 11.3335 14.7624 11.3335 16C11.3335 17.2377 11.8252 18.4247 12.7003 19.2999C13.5755 20.175 14.7625 20.6667 16.0002 20.6667Z" stroke="black" stroke-width="1.5" stroke-linecap="round" stroke-linejoin="round"/>
<path d="M23.5146 9.33337H23.5307" stroke="black" stroke-width="2" stroke-linecap="round" stroke-linejoin="round"/>
</svg>
