<svg xmlns="http://www.w3.org/2000/svg" width="32" height="18" fill="none"><path fill="#D9222A" d="M19.147 9c0 4.97-4.286 9-9.574 9C4.286 18 0 13.97 0 9s4.286-9 9.573-9c5.288 0 9.574 4.03 9.574 9Z"/><path fill="#EE9F2D" d="M22.426 0c-2.473 0-4.728.882-6.427 2.33a9.43 9.43 0 0 0-.966.952h1.934c.265.303.509.621.73.953h-3.394a8.836 8.836 0 0 0-.552.953h4.497c.154.31.29.629.405.953h-5.307a8.47 8.47 0 0 0-.278.953h5.863a8.523 8.523 0 0 1-.278 4.765h-5.307c.115.325.25.643.405.953h4.497a8.843 8.843 0 0 1-.552.953h-3.393c.221.332.465.65.73.953h1.934c-.298.34-.62.658-.967.953C17.698 17.118 19.951 18 22.425 18 27.714 18 32 13.97 32 9s-4.287-9-9.574-9Z"/><path fill="#242423" d="M30.724 14.017c0-.16.138-.291.309-.291.17 0 .309.13.309.29 0 .161-.138.292-.31.292-.17 0-.308-.13-.308-.291Zm.309.22c.13 0 .235-.098.235-.22s-.105-.22-.235-.221c-.13 0-.235.098-.235.22 0 .123.105.222.235.222Zm-.042-.092h-.063v-.256h.114a.13.13 0 0 1 .07.013.076.076 0 0 1 .034.064.07.07 0 0 1-.047.066l.05.113h-.07l-.041-.102h-.047v.102Zm0-.145h.035c.013 0 .027 0 .039-.005a.034.034 0 0 0 .015-.03c0-.01-.005-.02-.015-.026-.01-.006-.028-.005-.04-.005h-.034V14ZM7.338 9.985a1.837 1.837 0 0 0-.232-.015c-.59 0-.888.19-.888.565 0 .232.146.379.373.379.423 0 .728-.38.747-.929Zm.756 1.655h-.862l.02-.385c-.263.304-.613.449-1.09.449-.563 0-.949-.414-.949-1.015 0-.903.672-1.43 1.825-1.43.118 0 .27.01.424.028a.863.863 0 0 0 .04-.24c0-.247-.18-.338-.666-.338a3.644 3.644 0 0 0-1.1.167l.144-.836c.518-.142.86-.196 1.244-.196.892 0 1.365.377 1.364 1.089a4.47 4.47 0 0 1-.084.735c-.09.538-.284 1.69-.31 1.972Zm-3.316 0H3.74l.595-3.51-1.329 3.51h-.708l-.088-3.49-.625 3.49H.61l.812-4.566h1.495l.09 2.556.912-2.556h1.662l-.804 4.566ZM23.71 9.985a1.83 1.83 0 0 0-.232-.015c-.588 0-.887.19-.887.565 0 .232.146.379.373.379.423 0 .729-.38.746-.929Zm.756 1.655h-.86l.019-.385c-.263.304-.613.449-1.09.449-.563 0-.948-.414-.948-1.015 0-.903.67-1.43 1.824-1.43.118 0 .269.01.423.028a.863.863 0 0 0 .041-.24c0-.247-.18-.338-.666-.338a3.65 3.65 0 0 0-1.1.167l.144-.836c.518-.142.86-.196 1.243-.196.893 0 1.366.377 1.365 1.089.002.19-.032.426-.084.735-.09.538-.284 1.69-.31 1.972Zm-11.754-.057c-.284.085-.506.12-.746.12-.531 0-.821-.286-.821-.815-.008-.164.076-.596.142-.99.06-.346.45-2.533.45-2.533h1.034l-.121.562h.624l-.14.892h-.627c-.12.706-.291 1.586-.293 1.702 0 .192.109.275.356.275.118 0 .21-.011.28-.035l-.137.822Zm3.168-.03a3.73 3.73 0 0 1-1.06.15c-1.157 0-1.76-.568-1.76-1.655 0-1.27.768-2.204 1.808-2.204.852 0 1.396.523 1.396 1.344 0 .272-.037.538-.127.913H14.08c-.07.538.297.763.898.763.37 0 .703-.072 1.074-.234l-.172.923Zm-.58-2.2c.005-.078.109-.663-.481-.663-.33 0-.565.235-.66.662h1.14ZM8.716 9.1c0 .47.242.793.792 1.036.42.186.486.242.486.41 0 .231-.186.336-.597.336-.31 0-.599-.045-.931-.146l-.143.857c.236.048.447.093 1.081.11 1.097 0 1.603-.393 1.603-1.241 0-.51-.212-.81-.732-1.035-.436-.188-.486-.23-.486-.403 0-.2.173-.303.509-.303.204 0 .482.02.746.056l.148-.862a7.484 7.484 0 0 0-.914-.072c-1.163 0-1.566.571-1.562 1.257Zm12.218-1.16c.289 0 .558.072.929.247l.17-.99c-.152-.057-.688-.386-1.142-.386-.696 0-1.284.324-1.698.86-.603-.188-.85.191-1.155.57l-.27.058c.02-.124.04-.248.033-.373h-.954c-.13 1.15-.362 2.313-.543 3.463l-.047.25h1.04c.173-1.06.268-1.739.326-2.198l.392-.205c.058-.205.241-.274.609-.265-.05.25-.075.506-.074.761 0 1.215.697 1.97 1.816 1.97.288 0 .535-.035.918-.133l.183-1.04c-.344.16-.627.234-.883.234-.604 0-.97-.42-.97-1.112 0-1.005.544-1.71 1.32-1.71Z"/><path fill="#FDFDFD" d="M5.078 11.368h-1.04l.596-3.509-1.33 3.51h-.708l-.087-3.49-.626 3.49H.91l.813-4.565h1.494L3.26 9.63l1.008-2.826h1.615l-.804 4.564Z"/><path fill="#242423" d="m29.734 7.075-.23 1.319c-.284-.352-.59-.606-.993-.606-.524 0-1.002.373-1.314.923-.435-.084-.885-.228-.885-.228v.003c.035-.307.049-.495.046-.559h-.955c-.13 1.15-.361 2.313-.542 3.463l-.047.25h1.04c.14-.857.247-1.569.326-2.133.355-.302.533-.565.892-.548a3.016 3.016 0 0 0-.252 1.205c0 .928.5 1.54 1.255 1.54.381 0 .673-.123.958-.41l-.048.345h.983l.791-4.564h-1.025Zm-1.3 3.707c-.353 0-.532-.246-.532-.732 0-.73.334-1.247.806-1.247.357 0 .55.256.55.727 0 .736-.34 1.252-.823 1.252Z"/><path fill="#FDFDFD" d="M7.637 9.715a1.852 1.852 0 0 0-.232-.015c-.59 0-.887.19-.887.565 0 .23.145.378.372.378.424 0 .729-.379.747-.928Zm.756 1.654h-.861l.02-.384c-.263.303-.614.448-1.09.448-.563 0-.95-.413-.95-1.014 0-.904.672-1.431 1.826-1.431.117 0 .268.01.423.029a.862.862 0 0 0 .04-.241c0-.247-.18-.338-.666-.338a3.672 3.672 0 0 0-1.1.167l.144-.834c.518-.144.86-.197 1.244-.197.892 0 1.365.376 1.364 1.088a4.5 4.5 0 0 1-.084.736c-.09.537-.284 1.69-.31 1.97Zm13.94-4.442-.17.991c-.37-.175-.64-.247-.928-.247-.776 0-1.32.705-1.32 1.71 0 .693.365 1.112.97 1.112.255 0 .538-.074.882-.234l-.182 1.04c-.383.099-.63.134-.919.134-1.119 0-1.816-.756-1.816-1.97 0-1.633.963-2.773 2.34-2.773.454 0 .99.18 1.143.237Zm1.677 2.788a1.85 1.85 0 0 0-.232-.015c-.589 0-.887.19-.887.565 0 .23.146.378.373.378.423 0 .728-.379.746-.928Zm.756 1.654h-.861l.02-.384c-.263.303-.614.448-1.09.448-.563 0-.949-.413-.949-1.014 0-.904.672-1.431 1.825-1.431.118 0 .269.01.423.029a.87.87 0 0 0 .04-.241c0-.247-.18-.338-.665-.338a3.674 3.674 0 0 0-1.1.167l.143-.834c.518-.144.86-.197 1.244-.197.893 0 1.366.376 1.364 1.088.002.191-.031.427-.084.736-.09.537-.284 1.69-.31 1.97Zm-11.754-.056c-.285.084-.506.12-.747.12-.53 0-.82-.287-.82-.815-.008-.165.076-.596.142-.99.06-.347.45-2.534.45-2.534h1.033l-.12.563h.53l-.141.891h-.532c-.12.707-.292 1.586-.293 1.703 0 .192.109.274.355.274.119 0 .21-.01.28-.034l-.137.822Zm3.168-.03a3.741 3.741 0 0 1-1.06.15c-1.157 0-1.76-.569-1.76-1.656 0-1.27.767-2.204 1.808-2.204.852 0 1.396.523 1.396 1.344 0 .273-.038.538-.127.913h-2.058c-.07.539.298.764.898.764.37 0 .704-.072 1.074-.235l-.171.924Zm-.581-2.202c.006-.077.11-.662-.48-.662-.33 0-.565.236-.66.662h1.14Zm-6.583-.25c0 .469.243.792.792 1.036.42.186.486.241.486.41 0 .231-.186.335-.597.335-.31 0-.598-.045-.931-.146l-.143.857c.236.049.447.093 1.082.11 1.096 0 1.603-.392 1.603-1.24 0-.51-.212-.81-.733-1.035-.435-.189-.486-.23-.486-.404 0-.2.173-.303.509-.303.204 0 .482.02.747.056l.148-.861a7.477 7.477 0 0 0-.915-.073c-1.163 0-1.565.571-1.562 1.257Zm21.251 2.538h-.983l.049-.346c-.286.287-.578.41-.959.41-.755 0-1.255-.612-1.255-1.54 0-1.235.775-2.276 1.692-2.276.403 0 .708.155.992.506l.23-1.319h1.025l-.791 4.565Zm-1.533-.858c.484 0 .824-.516.824-1.251 0-.472-.194-.728-.55-.728-.472 0-.807.518-.807 1.248 0 .485.18.73.533.73Zm-3.032-2.854c-.13 1.149-.36 2.312-.542 3.462l-.047.25h1.04c.371-2.27.461-2.713 1.044-2.658.093-.464.266-.872.395-1.077-.436-.085-.679.146-.997.585.025-.19.071-.374.062-.562h-.955Zm-8.555 0c-.13 1.149-.362 2.312-.543 3.462l-.047.25h1.04c.371-2.27.461-2.714 1.044-2.658.093-.465.266-.872.394-1.077-.434-.085-.678.146-.996.585.025-.19.07-.374.062-.562h-.954Zm13.577 3.421c0-.16.138-.29.308-.29.17 0 .31.129.31.29 0 .16-.139.29-.31.29-.17 0-.308-.13-.308-.29Zm.309.22c.13.001.234-.098.235-.22 0-.122-.105-.22-.235-.22s-.235.098-.235.22.105.22.235.22Zm-.042-.093h-.063v-.255h.114c.024 0 .049 0 .07.013a.075.075 0 0 1 .034.064.07.07 0 0 1-.047.066l.05.112h-.07l-.042-.1h-.046v.1Zm0-.144h.035c.013 0 .027 0 .039-.005a.034.034 0 0 0 .015-.03c0-.01-.006-.02-.015-.026-.01-.006-.029-.004-.04-.004h-.034v.065Z"/></svg>