<svg width="32" height="32" viewBox="0 0 32 32" fill="none" xmlns="http://www.w3.org/2000/svg">
<path d="M30.6668 3.99998C29.3426 4.84841 27.9763 5.58946 26.4802 6.03998C25.6771 5.11666 24.6099 4.46224 23.4229 4.16521C22.2358 3.86819 20.9862 3.94291 19.8429 4.37925C18.6997 4.81559 17.7181 5.59251 17.0308 6.60494C16.3435 7.61736 15.9838 8.81643 16.0002 10.04V11.3733C13.657 11.4341 11.3352 10.9144 9.24151 9.86057C7.14782 8.80675 5.34725 7.25149 4.00016 5.33331C4.00016 5.33331 -1.33317 17.3333 10.6668 22.6666C7.92087 24.5306 4.64971 25.4652 1.3335 25.3333C13.3335 32 28.0002 25.3333 28.0002 9.99998C27.9989 9.62858 27.9632 9.25811 27.8935 8.89331C29.2543 7.5513 30.0093 5.51508 30.6668 3.99998Z" stroke="black" stroke-width="1.5" stroke-linecap="round" stroke-linejoin="round"/>
</svg>
