<svg xmlns="http://www.w3.org/2000/svg" width="36" height="12" fill="none"><path fill="#2566AF" d="M15.606 11.8H12.67L14.505.207h2.938L15.606 11.8ZM10.198.207l-2.8 7.974-.332-1.717-.988-5.213S5.958.207 4.684.207H.054L0 .403S1.416.706 3.073 1.73L5.625 11.8h3.06L13.36.207h-3.161ZM33.303 11.8H36L33.648.207h-2.361c-1.09 0-1.356.864-1.356.864L25.55 11.8h3.062l.612-1.722h3.735l.344 1.722ZM30.07 7.7l1.544-4.34.868 4.34H30.07Zm-4.29-4.705.419-2.49S24.905 0 23.557 0c-1.458 0-4.92.655-4.92 3.838 0 2.995 4.063 3.032 4.063 4.605 0 1.573-3.644 1.291-4.847.3l-.437 2.602s1.312.655 3.316.655c2.005 0 5.029-1.066 5.029-3.969 0-3.014-4.1-3.295-4.1-4.605 0-1.311 2.861-1.143 4.118-.431Z"/></svg>