<svg xmlns="http://www.w3.org/2000/svg" width="36" height="14" fill="none"><g clip-path="url(#a)"><path fill="#242423" d="M6.578 1.798c-.422.471-1.097.843-1.772.79-.085-.637.246-1.314.633-1.732C5.86.372 6.599.026 7.197 0c.07.664-.204 1.314-.62 1.798Zm.612.916c-.978-.053-1.815.524-2.279.524-.47 0-1.181-.497-1.955-.484A2.916 2.916 0 0 0 .502 4.16C-.553 5.873.228 8.408 1.248 9.8c.499.69 1.097 1.447 1.884 1.42.746-.026 1.04-.458 1.941-.458.907 0 1.167.458 1.955.445.816-.013 1.329-.69 1.828-1.38.57-.783.802-1.546.816-1.586-.014-.014-1.575-.578-1.59-2.276-.013-1.42 1.231-2.097 1.288-2.137-.704-.982-1.8-1.088-2.18-1.115ZM12.836.79v10.345h1.702V7.598h2.356c2.152 0 3.664-1.393 3.664-3.41C20.558 2.17 19.074.79 16.95.79h-4.114Zm1.702 1.353H16.5c1.477 0 2.32.744 2.32 2.05 0 1.308-.843 2.058-2.327 2.058h-1.955V2.143Zm9.128 9.072c1.069 0 2.06-.511 2.51-1.321h.035v1.24h1.576V5.987c0-1.494-1.266-2.456-3.214-2.456-1.807 0-3.143.976-3.193 2.316h1.533c.127-.637.753-1.055 1.61-1.055 1.041 0 1.625.458 1.625 1.3v.571l-2.124.12c-1.976.113-3.044.876-3.044 2.203 0 1.34 1.104 2.23 2.686 2.23Zm.457-1.228c-.907 0-1.484-.411-1.484-1.042 0-.65.556-1.028 1.617-1.088l1.892-.113v.584c0 .969-.872 1.659-2.025 1.659Zm5.766 3.961c1.66 0 2.44-.597 3.122-2.408L36 3.63h-1.73L32.266 9.74h-.035L30.227 3.63h-1.78l2.884 7.532-.155.457c-.26.777-.682 1.075-1.434 1.075-.134 0-.394-.013-.5-.026v1.24c.099.027.52.04.647.04Z"/></g><defs><clipPath id="a"><path fill="#fff" d="M0 0h36v14H0z"/></clipPath></defs></svg>