<svg width="37" height="22" viewBox="0 0 37 22" fill="none" xmlns="http://www.w3.org/2000/svg">
<rect x="0.25" y="0.25" width="36.5" height="21.5" rx="3.75" fill="#FDFDFD"/>
<path d="M17.8165 10.888V13.5196H16.8795V7.01148H19.3164C19.9096 7.01148 20.4716 7.20918 20.9096 7.57715C21.3471 7.91638 21.5658 8.42588 21.5658 8.96369C21.5658 9.5015 21.3476 9.98226 20.9096 10.3502C20.4721 10.7182 19.9414 10.9159 19.3164 10.9159L17.8165 10.888ZM17.8165 7.8036V10.0676H19.3789C19.7226 10.0676 20.0664 9.95395 20.2851 9.72839C20.7851 9.30425 20.7851 8.5966 20.3159 8.17202L20.2851 8.14327C20.0351 7.91682 19.7226 7.77529 19.3789 7.80404H17.8165V7.8036Z" fill="#5F6368"/>
<path d="M23.7202 8.93578C24.4077 8.93578 24.9385 9.10517 25.3447 9.44529C25.7509 9.78451 25.9379 10.2374 25.9379 10.8035V13.5204H25.0634V12.8977H25.0327C24.6582 13.4072 24.1265 13.662 23.502 13.662C22.9712 13.662 22.502 13.5204 22.1275 13.2378C21.7838 12.9548 21.5651 12.5585 21.5651 12.1343C21.5651 11.6814 21.7525 11.3143 22.1275 11.0308C22.502 10.7478 23.0328 10.6346 23.6582 10.6346C24.2207 10.6346 24.6582 10.7195 25.0014 10.9176V10.7199C25.0014 10.4369 24.8769 10.1543 24.6269 9.98398C24.3769 9.78628 24.0645 9.67262 23.7207 9.67262C23.19 9.67262 22.7838 9.87031 22.5025 10.267L21.6901 9.81414C22.1895 9.2184 22.8458 8.93578 23.7202 8.93578ZM22.5333 12.1613C22.5333 12.3878 22.6578 12.5855 22.8458 12.6987C23.064 12.8402 23.314 12.9251 23.564 12.9251C23.9385 12.9251 24.314 12.7836 24.5947 12.5293C24.9072 12.2741 25.063 11.9636 25.063 11.6235C24.7822 11.4258 24.3755 11.3121 23.8447 11.3121C23.4703 11.3121 23.1573 11.3971 22.9078 11.5664C22.6578 11.7084 22.5333 11.9066 22.5333 12.1613Z" fill="#5F6368"/>
<path d="M31 9.07725L27.9078 15.5H26.9699L28.1261 13.2647L26.0954 9.10511H27.0954L28.5631 12.3023H28.5943L30.0313 9.10511H31V9.07725Z" fill="#5F6368"/>
<path d="M14.0999 10.3224C14.0999 10.0672 14.0682 9.81288 14.0374 9.55813H10.1328V11.0013H12.3505C12.2567 11.4542 11.976 11.8783 11.538 12.1331V13.0667H12.8812C13.6619 12.4161 14.0999 11.4537 14.0999 10.3224Z" fill="#4285F4"/>
<path d="M10.1305 13.9719C11.255 13.9719 12.192 13.6327 12.8799 13.0661L11.5367 12.1325C11.1622 12.3589 10.693 12.5005 10.1315 12.5005C9.06907 12.5005 8.1321 11.8499 7.8201 10.9441H6.44467V11.9065C7.1629 13.1798 8.56909 13.9719 10.1305 13.9719Z" fill="#34A853"/>
<path d="M7.81975 10.9447C7.63226 10.4918 7.63226 9.98226 7.81975 9.50151V8.53911H6.44529C5.85157 9.58643 5.85157 10.8314 6.44529 11.9066L7.81975 10.9447Z" fill="#FBBC04"/>
<path d="M10.1307 7.97338C10.7244 7.97338 11.2869 8.17107 11.7239 8.53905L12.9113 7.46387C12.1614 6.84159 11.1619 6.47361 10.1619 6.50148C8.5995 6.50148 7.16353 7.2936 6.47605 8.56735L7.85051 9.52886C8.13175 8.62441 9.06872 7.97338 10.1307 7.97338Z" fill="#EA4335"/>
<rect x="0.25" y="0.25" width="36.5" height="21.5" rx="3.75" stroke="#242423" stroke-width="0.5"/>
</svg>
