<svg width="35" height="22" viewBox="0 0 35 22" fill="none" xmlns="http://www.w3.org/2000/svg">
<rect x="0.25" y="0.25" width="34.5" height="21.5" rx="3.75" fill="#FDFDFD"/>
<path d="M19.762 11C19.762 14.8662 16.6811 17.9998 12.8808 17.9998C9.08049 17.9998 6 14.8661 6 11C6 7.13418 9.08053 4.00016 12.8808 4.00016C16.681 4.00016 19.762 7.13433 19.762 11Z" fill="#D9222A"/>
<path d="M22.1187 4C20.3408 4 18.7207 4.68618 17.4996 5.81204C17.2508 6.04169 17.0186 6.28924 16.8048 6.55282H18.195C18.3853 6.78824 18.5605 7.03587 18.7196 7.29422H16.2803C16.1336 7.53295 16.0012 7.78046 15.8838 8.03546H19.1158C19.2267 8.27665 19.324 8.52408 19.4072 8.77655H15.5925C15.5124 9.01965 15.4456 9.26712 15.3925 9.51779H19.6069C19.71 10.0049 19.7621 10.5017 19.762 11C19.762 11.7774 19.6371 12.5252 19.4071 13.2236H15.5924C15.6754 13.4762 15.7726 13.7237 15.8836 13.9648H19.1157C18.9983 14.2199 18.8658 14.4674 18.7191 14.7063H16.2801C16.4391 14.9644 16.6144 15.2119 16.8047 15.447H18.1947C17.9811 15.7111 17.7488 15.9589 17.4997 16.1885C18.7209 17.3141 20.3408 18 22.1188 18C25.9191 18 29 14.8662 29 11.0002C29 7.13449 25.919 4 22.1187 4Z" fill="#EE9F2D"/>
<path d="M28.0826 14.902C28.0826 14.7772 28.1819 14.6758 28.3048 14.6758C28.4276 14.6758 28.5269 14.7772 28.5269 14.902C28.5269 15.0267 28.4276 15.1282 28.3048 15.1282C28.1819 15.1282 28.0826 15.0267 28.0826 14.902ZM28.3048 15.0739C28.3981 15.0738 28.4737 14.9969 28.4737 14.902C28.4737 14.8071 28.3982 14.7303 28.305 14.7302C28.2119 14.7301 28.1361 14.8068 28.1359 14.9015V14.902C28.1359 14.9969 28.2115 15.0738 28.3048 15.0739C28.3048 15.0738 28.3047 15.0739 28.3048 15.0739ZM28.2747 15.0013H28.2292V14.8026H28.3116C28.3289 14.8026 28.3464 14.8026 28.3616 14.8125C28.3775 14.8234 28.3864 14.8426 28.3864 14.8624C28.3864 14.8847 28.3734 14.9054 28.3525 14.9136L28.3885 15.0013H28.3381L28.3082 14.9226H28.2748L28.2747 15.0013ZM28.2747 14.8886H28.3C28.3094 14.8886 28.3193 14.8895 28.3278 14.8847C28.3353 14.8799 28.3391 14.8707 28.3391 14.862C28.3389 14.8538 28.3348 14.8463 28.3281 14.8418C28.3202 14.8367 28.3076 14.8378 28.299 14.8378H28.2747V14.8886ZM11.274 11.7665C11.1956 11.7572 11.1611 11.7547 11.1072 11.7547C10.6838 11.7547 10.4695 11.9024 10.4695 12.1941C10.4695 12.374 10.5741 12.4884 10.7373 12.4884C11.0416 12.4884 11.2609 12.1936 11.274 11.7665ZM11.8172 13.0532H11.1983L11.2125 12.7539C11.0237 12.9904 10.7718 13.1028 10.4295 13.1028C10.0246 13.1028 9.74703 12.7811 9.74703 12.314C9.74703 11.6111 10.2299 11.201 11.0587 11.201C11.1433 11.201 11.2519 11.2087 11.3631 11.2232C11.3862 11.128 11.3923 11.0872 11.3923 11.036C11.3923 10.8446 11.2621 10.7733 10.9132 10.7733C10.5477 10.7691 10.2463 10.8618 10.1225 10.9032C10.1304 10.8553 10.226 10.2536 10.226 10.2536C10.5983 10.1426 10.8438 10.1009 11.1202 10.1009C11.7615 10.1009 12.1013 10.3938 12.1007 10.9475C12.1019 11.0959 12.0778 11.279 12.0402 11.5197C11.9753 11.9383 11.8362 12.8347 11.8172 13.0532ZM9.4345 13.0532H8.6875L9.11537 10.3236L8.15992 13.0532H7.65089L7.58795 10.3392L7.13819 13.0532H6.43891L7.023 9.50235H8.09713L8.1623 11.4899L8.81749 9.50235H10.0122L9.4345 13.0532ZM23.0416 11.7665C22.9635 11.7572 22.9289 11.7547 22.8752 11.7547C22.4519 11.7547 22.2375 11.9024 22.2375 12.1941C22.2375 12.374 22.342 12.4884 22.5052 12.4884C22.8096 12.4884 23.029 12.1936 23.0416 11.7665ZM23.5853 13.0532H22.9664L22.9804 12.7539C22.7916 12.9904 22.5396 13.1028 22.1976 13.1028C21.7926 13.1028 21.5153 12.7811 21.5153 12.314C21.5153 11.6111 21.9978 11.201 22.8268 11.201C22.9114 11.201 23.0198 11.2087 23.1309 11.2232C23.154 11.128 23.1601 11.0872 23.1601 11.036C23.1601 10.8446 23.0301 10.7733 22.6811 10.7733C22.3157 10.7691 22.0146 10.8618 21.8904 10.9032C21.8982 10.8553 21.9942 10.2536 21.9942 10.2536C22.3665 10.1426 22.6118 10.1009 22.8879 10.1009C23.5296 10.1009 23.8693 10.3938 23.8687 10.9475C23.8699 11.0959 23.8458 11.279 23.8082 11.5197C23.7436 11.9383 23.6042 12.8347 23.5853 13.0532ZM15.1371 13.0093C14.9327 13.0748 14.7733 13.1028 14.6004 13.1028C14.2185 13.1028 14.0101 12.8796 14.0101 12.4685C14.0047 12.3409 14.0651 12.0052 14.1125 11.6988C14.1556 11.4291 14.4364 9.72837 14.4364 9.72837H15.1789L15.0922 10.1654H15.5407L15.4394 10.8594H14.9893C14.903 11.4086 14.7802 12.0927 14.7788 12.1833C14.7788 12.3322 14.8569 12.3972 15.0345 12.3972C15.1196 12.3972 15.1855 12.3883 15.2359 12.3699L15.1371 13.0093ZM17.4138 12.9859C17.1587 13.0652 16.9126 13.1036 16.6517 13.1029C15.8205 13.1021 15.3872 12.6605 15.3872 11.8148C15.3872 10.8277 15.9385 10.101 16.6867 10.101C17.2989 10.101 17.6899 10.5079 17.6899 11.146C17.6899 11.3577 17.6631 11.5644 17.5984 11.8562H16.1197C16.0697 12.275 16.3332 12.4496 16.7651 12.4496C17.031 12.4496 17.2707 12.3938 17.5372 12.2677L17.4138 12.9859ZM16.9964 11.274C17.0005 11.2138 17.0752 10.7586 16.6509 10.7586C16.4143 10.7586 16.2452 10.942 16.1763 11.274H16.9964ZM12.2653 11.0783C12.2653 11.4436 12.4394 11.6955 12.8343 11.8846C13.1368 12.0293 13.1836 12.0722 13.1836 12.2032C13.1836 12.3833 13.0502 12.4645 12.7546 12.4645C12.5317 12.4645 12.3244 12.4291 12.0853 12.3506C12.0853 12.3506 11.9871 12.9871 11.9826 13.0175C12.1524 13.0552 12.3038 13.0901 12.76 13.1029C13.5482 13.1029 13.9122 12.7976 13.9122 12.1378C13.9122 11.741 13.7598 11.5081 13.3856 11.3331C13.0724 11.1869 13.0365 11.1542 13.0365 11.0194C13.0365 10.8632 13.1606 10.7836 13.4021 10.7836C13.5487 10.7836 13.749 10.7995 13.9388 10.827L14.0451 10.1572C13.8517 10.126 13.5585 10.101 13.3877 10.101C12.552 10.101 12.2628 10.5451 12.2653 11.0783ZM21.0471 10.1769C21.2545 10.1769 21.448 10.2323 21.7145 10.3688L21.8367 9.59812C21.7273 9.55441 21.3421 9.29785 21.0157 9.29785C20.5158 9.29785 20.0933 9.55019 19.796 9.96664C19.3625 9.82056 19.1843 10.1158 18.9658 10.4099L18.7717 10.4559C18.7864 10.3591 18.7997 10.2629 18.7952 10.1655H18.1092C18.0154 11.0592 17.8493 11.9643 17.7193 12.8592L17.6854 13.0532H18.4327C18.5575 12.2287 18.6258 11.7008 18.6674 11.3436L18.9488 11.1843C18.9908 11.0253 19.1224 10.9715 19.3864 10.978C19.3509 11.1733 19.3332 11.3715 19.3334 11.5701C19.3334 12.5148 19.8344 13.103 20.6387 13.103C20.8458 13.103 21.0236 13.0752 21.2988 12.9993L21.4303 12.1898C21.1827 12.3138 20.9795 12.3722 20.7955 12.3722C20.3612 12.3722 20.0985 12.046 20.0985 11.507C20.0985 10.7251 20.4893 10.1769 21.0471 10.1769Z" fill="#242423"/>
<path d="M9.6497 12.8422H8.90255L9.33077 10.1129L8.37528 12.8422H7.8661L7.80315 10.1285L7.35339 12.8422H6.65416L7.23824 9.29188H8.31237L8.34258 11.4898L9.06723 9.29188H10.2275L9.6497 12.8422Z" fill="#FDFDFD"/>
<path d="M27.3715 9.50254L27.2059 10.5285C27.0016 10.255 26.7821 10.0571 26.4924 10.0571C26.1155 10.0571 25.7724 10.3478 25.5478 10.7756C25.2351 10.7096 24.9116 10.5977 24.9116 10.5977L24.9114 10.6003C24.9366 10.3611 24.9467 10.2152 24.9445 10.1656H24.2583C24.1648 11.0593 23.9988 11.9645 23.869 12.8593L23.8347 13.0534H24.5819C24.6828 12.3867 24.7601 11.8331 24.817 11.394C25.0722 11.1594 25.2 10.9547 25.458 10.9683C25.3438 11.2493 25.2769 11.5729 25.2769 11.9049C25.2769 12.6268 25.6359 13.1031 26.1789 13.1031C26.4527 13.1031 26.6628 13.0071 26.8677 12.7844L26.8327 13.0529H27.5394L28.1083 9.50258L27.3715 9.50254ZM26.4373 12.386C26.183 12.386 26.0546 12.1946 26.0546 11.8168C26.0546 11.2492 26.295 10.8467 26.6339 10.8467C26.8905 10.8467 27.0295 11.0458 27.0295 11.4125C27.0295 11.985 26.7853 12.386 26.4373 12.386Z" fill="#242423"/>
<path d="M11.4889 11.5561C11.4106 11.5469 11.376 11.5444 11.3223 11.5444C10.8989 11.5444 10.6847 11.6921 10.6847 11.9838C10.6847 12.1633 10.7893 12.2781 10.9522 12.2781C11.2569 12.278 11.4762 11.9833 11.4889 11.5561ZM12.0324 12.8423H11.4135L11.4276 12.5435C11.2389 12.7796 10.9867 12.8925 10.6448 12.8925C10.2397 12.8925 9.96223 12.5708 9.96223 12.1037C9.96223 11.4005 10.4449 10.9906 11.2739 10.9906C11.3585 10.9906 11.4671 10.9984 11.5782 11.0129C11.6013 10.9177 11.6074 10.8769 11.6074 10.8254C11.6074 10.634 11.4774 10.563 11.1284 10.563C10.7628 10.5588 10.4616 10.6516 10.3376 10.6925C10.3454 10.6447 10.4411 10.0437 10.4411 10.0437C10.8133 9.93228 11.0591 9.89051 11.3351 9.89051C11.9766 9.89051 12.3165 10.1837 12.3159 10.7369C12.317 10.8859 12.2928 11.0689 12.2552 11.3092C12.1905 11.7274 12.0513 12.6243 12.0324 12.8423ZM22.0519 9.38758L21.9296 10.1584C21.6632 10.0221 21.4696 9.96656 21.2623 9.96656C20.7046 9.96656 20.3136 10.5148 20.3136 11.2966C20.3136 11.8355 20.5764 12.1615 21.0106 12.1615C21.1946 12.1615 21.3977 12.1034 21.6452 11.9792L21.5141 12.7884C21.2387 12.8647 21.0611 12.8925 20.8538 12.8925C20.0497 12.8925 19.5485 12.3043 19.5485 11.3596C19.5485 10.0903 20.2408 9.20313 21.2309 9.20313C21.557 9.20317 21.9424 9.34386 22.0519 9.38758ZM23.2572 11.5561C23.179 11.5469 23.1445 11.5444 23.0906 11.5444C22.6674 11.5444 22.453 11.6921 22.453 11.9838C22.453 12.1633 22.5576 12.2781 22.7207 12.2781C23.025 12.278 23.2444 11.9833 23.2572 11.5561ZM23.8007 12.8423H23.1816L23.1959 12.5435C23.0071 12.7796 22.755 12.8925 22.4131 12.8925C22.0082 12.8925 21.7306 12.5708 21.7306 12.1037C21.7306 11.4005 22.2134 10.9906 23.042 10.9906C23.1269 10.9906 23.2353 10.9984 23.3464 11.0129C23.3695 10.9177 23.3757 10.8769 23.3757 10.8254C23.3757 10.634 23.2456 10.563 22.8967 10.563C22.5313 10.5588 22.2299 10.6516 22.1059 10.6925C22.1137 10.6447 22.2096 10.0437 22.2096 10.0437C22.5817 9.93228 22.8273 9.89051 23.1033 9.89051C23.7451 9.89051 24.0848 10.1837 24.084 10.7369C24.0853 10.8859 24.0612 11.0689 24.0235 11.3092C23.959 11.7274 23.8194 12.6243 23.8007 12.8423ZM15.3525 12.7986C15.1479 12.8641 14.9885 12.8925 14.8158 12.8925C14.4339 12.8925 14.2255 12.6692 14.2255 12.2581C14.2202 12.1303 14.2806 11.7949 14.3281 11.4885C14.371 11.2184 14.6518 9.51787 14.6518 9.51787H15.3942L15.3076 9.95509H15.6887L15.5872 10.6488H15.2049C15.1186 11.1983 14.9954 11.8818 14.9942 11.9727C14.9942 12.122 15.0724 12.1865 15.2499 12.1865C15.335 12.1865 15.4009 12.178 15.4513 12.1595L15.3525 12.7986ZM17.6291 12.7755C17.3742 12.8548 17.1278 12.893 16.8671 12.8925C16.0358 12.8917 15.6026 12.4501 15.6026 11.6044C15.6026 10.6169 16.1538 9.89048 16.9021 9.89048C17.5143 9.89048 17.9053 10.2972 17.9053 10.9356C17.9053 11.1475 17.8784 11.3541 17.8139 11.6458H16.3352C16.2852 12.0646 16.5487 12.2394 16.9806 12.2394C17.2463 12.2394 17.4862 12.1834 17.7526 12.057L17.6291 12.7755ZM17.2116 11.0631C17.2161 11.0032 17.2906 10.5477 16.8661 10.5477C16.6297 10.5477 16.4606 10.7317 16.3918 11.0631H17.2116ZM12.4806 10.868C12.4806 11.2332 12.6547 11.4848 13.0495 11.6742C13.352 11.8188 13.3988 11.8619 13.3988 11.9929C13.3988 12.1729 13.2653 12.2541 12.9699 12.2541C12.747 12.2541 12.5396 12.2187 12.3004 12.1402C12.3004 12.1402 12.2025 12.7767 12.198 12.8071C12.3674 12.8448 12.519 12.8792 12.9752 12.8925C13.7635 12.8925 14.1274 12.5872 14.1274 11.9275C14.1274 11.5305 13.9752 11.2977 13.6008 11.1228C13.2878 10.9762 13.2515 10.944 13.2515 10.809C13.2515 10.653 13.3759 10.5727 13.6173 10.5727C13.7638 10.5727 13.9641 10.5891 14.1541 10.6166L14.2603 9.94667C14.0671 9.91547 13.7738 9.89048 13.6031 9.89048C12.7673 9.89048 12.4781 10.3342 12.4806 10.868ZM27.7544 12.8423H27.0476L27.0828 12.5735C26.8778 12.7965 26.6678 12.8925 26.394 12.8925C25.851 12.8925 25.4921 12.4163 25.4921 11.6943C25.4921 10.7339 26.0487 9.92421 26.7076 9.92421C26.9973 9.92421 27.2166 10.0446 27.4207 10.3179L27.5865 9.292H28.3233L27.7544 12.8423ZM26.6525 12.1752C27.0004 12.1752 27.2447 11.7742 27.2447 11.2021C27.2447 10.8353 27.1056 10.6363 26.8489 10.6363C26.5102 10.6363 26.2695 11.0385 26.2695 11.6063C26.2695 11.984 26.3982 12.1752 26.6525 12.1752ZM24.4735 9.95513C24.38 10.8488 24.2139 11.754 24.084 12.6483L24.0498 12.8424H24.797C25.0642 11.0768 25.1288 10.7324 25.5478 10.7756C25.6146 10.4142 25.7388 10.0974 25.8315 9.93762C25.5185 9.87133 25.3438 10.0512 25.1151 10.3929C25.1331 10.2452 25.1662 10.1017 25.1596 9.95517L24.4735 9.95513ZM18.3241 9.95513C18.2304 10.8488 18.0643 11.754 17.9344 12.6483L17.9004 12.8424H18.6479C18.9148 11.0768 18.9793 10.732 19.398 10.7752C19.4651 10.4138 19.5894 10.0974 19.6817 9.93762C19.3691 9.87133 19.1942 10.0512 18.9656 10.3929C18.9837 10.2452 19.0164 10.1017 19.0102 9.95517L18.3241 9.95513ZM28.0826 12.6163C28.0825 12.4915 28.1817 12.3903 28.3043 12.3901C28.4269 12.39 28.5269 12.491 28.527 12.6157V12.6163C28.5269 12.7411 28.4275 12.8423 28.3048 12.8423C28.1821 12.8423 28.0826 12.7411 28.0826 12.6163ZM28.3048 12.7881C28.398 12.7881 28.4735 12.7113 28.4736 12.6165C28.4737 12.5216 28.3981 12.4445 28.3049 12.4445C28.2116 12.4445 28.1359 12.5214 28.1358 12.6164C28.1359 12.7112 28.2115 12.7881 28.3048 12.7881ZM28.2747 12.7151H28.2292V12.5169H28.3117C28.3288 12.5169 28.3466 12.5173 28.3614 12.5268C28.3774 12.5379 28.3865 12.5567 28.3865 12.5765C28.3865 12.5989 28.3736 12.6199 28.3524 12.6279L28.3885 12.7151H28.3379L28.3081 12.6367H28.2747L28.2747 12.7151ZM28.2747 12.6028H28.2998C28.3092 12.6028 28.3194 12.6036 28.3277 12.5989C28.3352 12.5941 28.3391 12.5849 28.3391 12.576C28.3387 12.5678 28.3347 12.5602 28.3281 12.5556C28.3202 12.551 28.3073 12.5523 28.2988 12.5523H28.2747L28.2747 12.6028Z" fill="#FDFDFD"/>
<rect x="0.25" y="0.25" width="34.5" height="21.5" rx="3.75" stroke="#242423" stroke-width="0.5"/>
</svg>
