<svg width="37" height="22" viewBox="0 0 37 22" fill="none" xmlns="http://www.w3.org/2000/svg">
<rect x="0.25" y="0.25" width="36.5" height="21.5" rx="3.75" fill="#FDFDFD"/>
<path d="M16.8377 14.8667H14.7978L16.0727 7.1381H18.1129L16.8377 14.8667ZM13.0817 7.1381L11.1369 12.4539L10.9067 11.3092L10.9069 11.3096L10.2205 7.83397C10.2205 7.83397 10.1375 7.1381 9.25285 7.1381H6.03773L6 7.26896C6 7.26896 6.98319 7.47073 8.13384 8.15234L9.90615 14.8669H12.0316L15.2771 7.1381H13.0817ZM29.1269 14.8667H31L29.3669 7.13789H27.727C26.9698 7.13789 26.7853 7.71385 26.7853 7.71385L23.7429 14.8667H25.8694L26.2947 13.7187H28.888L29.1269 14.8667ZM26.8822 12.1328L27.954 9.24059L28.557 12.1328H26.8822ZM23.9024 8.99664L24.1935 7.33698C24.1935 7.33698 23.2952 7 22.3588 7C21.3465 7 18.9424 7.43642 18.9424 9.55854C18.9424 11.5552 21.764 11.58 21.764 12.6288C21.764 13.6775 19.2331 13.4896 18.3979 12.8283L18.0947 14.5636C18.0947 14.5636 19.0055 15 20.3972 15C21.7893 15 23.8894 14.289 23.8894 12.354C23.8894 10.3445 21.0425 10.1575 21.0425 9.28379C21.0428 8.40993 23.0295 8.52218 23.9024 8.99664Z" fill="#2566AF"/>
<rect x="0.25" y="0.25" width="36.5" height="21.5" rx="3.75" stroke="#242423" stroke-width="0.5"/>
</svg>
